<svg width="1440" height="1024" viewBox="0 0 1440 1024" fill="none" xmlns="http://www.w3.org/2000/svg">
<g id="Desktop - 1">
<rect width="1440" height="1024" fill="white"/>
<g id="item">
<path id="Path 2219" d="M481.619 452.085C481.619 452.525 481.607 452.965 481.584 453.393C481.246 459.833 478.451 465.898 473.773 470.337C469.095 474.776 462.892 477.25 456.443 477.25C449.995 477.25 443.792 474.776 439.114 470.337C434.436 465.898 431.641 459.833 431.303 453.393C431.28 452.965 431.268 452.525 431.268 452.085C431.268 445.408 433.92 439.005 438.642 434.284C443.363 429.562 449.766 426.91 456.443 426.91C463.12 426.91 469.523 429.562 474.244 434.284C478.966 439.005 481.618 445.408 481.618 452.085H481.619Z" fill="#6C63FF"/>
<path id="Path 2220" d="M712.391 435.298H514.58C513.494 435.339 512.467 435.799 511.713 436.582C510.96 437.364 510.539 438.409 510.539 439.495C510.539 440.581 510.96 441.626 511.713 442.408C512.467 443.191 513.494 443.651 514.58 443.692H712.391C713.503 443.732 714.585 443.329 715.4 442.572C716.216 441.815 716.697 440.765 716.739 439.653C716.781 438.541 716.38 437.458 715.624 436.642C714.869 435.825 713.82 435.342 712.708 435.298C712.602 435.294 712.497 435.294 712.391 435.298Z" fill="#6C63FF"/>
<path id="Path 2221" d="M599.697 460.478H514.58C513.468 460.478 512.403 460.92 511.617 461.706C510.831 462.491 510.389 463.557 510.389 464.669C510.389 465.781 510.831 466.847 511.617 467.632C512.403 468.418 513.468 468.86 514.58 468.86H599.697C600.809 468.862 601.875 468.422 602.663 467.637C603.45 466.853 603.893 465.788 603.895 464.676C603.897 463.564 603.457 462.498 602.672 461.71C601.888 460.923 600.823 460.48 599.711 460.478H599.697Z" fill="#E6E6E6"/>
</g>
<g id="in">
<path id="Path 2222" d="M817.614 404.163H483.87C482.001 404.161 480.209 403.418 478.888 402.096C477.566 400.775 476.823 398.983 476.821 397.114V250.648C476.823 248.779 477.566 246.987 478.888 245.666C480.209 244.344 482.001 243.601 483.87 243.599H817.61C819.479 243.601 821.271 244.344 822.592 245.666C823.914 246.987 824.657 248.779 824.659 250.648V397.11C824.658 398.979 823.916 400.771 822.595 402.093C821.274 403.415 819.483 404.16 817.614 404.163V404.163Z" fill="#6C63FF"/>
<path id="Path 2223" d="M551.841 295.518C550.728 295.469 549.642 295.865 548.82 296.617C547.999 297.37 547.51 298.418 547.462 299.531C547.413 300.644 547.809 301.73 548.561 302.551C549.314 303.373 550.362 303.861 551.474 303.91C551.597 303.915 551.719 303.915 551.841 303.91H749.648C750.729 303.863 751.75 303.4 752.499 302.618C753.247 301.837 753.665 300.796 753.665 299.714C753.665 298.632 753.247 297.591 752.499 296.81C751.75 296.028 750.729 295.565 749.648 295.518H551.841Z" fill="white"/>
<path id="Path 2224" d="M551.841 319.831C550.728 319.782 549.642 320.178 548.82 320.93C547.999 321.683 547.51 322.731 547.462 323.844C547.413 324.957 547.809 326.043 548.561 326.864C549.314 327.686 550.362 328.174 551.474 328.223C551.597 328.228 551.719 328.228 551.841 328.223H749.648C750.729 328.176 751.75 327.713 752.499 326.931C753.247 326.15 753.665 325.109 753.665 324.027C753.665 322.945 753.247 321.904 752.499 321.123C751.75 320.341 750.729 319.878 749.648 319.831H551.841Z" fill="white"/>
<path id="Path 2225" d="M551.841 343.848C550.76 343.895 549.739 344.358 548.99 345.14C548.242 345.921 547.824 346.962 547.824 348.044C547.824 349.126 548.242 350.167 548.99 350.948C549.739 351.73 550.76 352.193 551.841 352.24H636.958C637.509 352.264 638.059 352.179 638.578 351.991C639.096 351.802 639.572 351.513 639.979 351.141C640.385 350.768 640.715 350.319 640.948 349.819C641.181 349.319 641.313 348.778 641.337 348.227C641.361 347.676 641.277 347.126 641.088 346.608C640.899 346.089 640.61 345.613 640.238 345.207C639.865 344.8 639.416 344.471 638.916 344.238C638.416 344.004 637.876 343.872 637.325 343.848C637.202 343.843 637.08 343.843 636.958 343.848H551.841Z" fill="white"/>
</g>
<g id="out">
<path id="Path 2217" d="M901.482 561.91H271.582C269.572 561.908 267.645 561.108 266.223 559.687C264.802 558.265 264.002 556.338 264 554.328V153.582C264.002 151.572 264.802 149.645 266.223 148.223C267.645 146.802 269.572 146.002 271.582 146H901.482C903.492 146.002 905.42 146.802 906.841 148.223C908.262 149.645 909.062 151.572 909.064 153.582V554.328C909.062 556.338 908.262 558.265 906.841 559.687C905.419 561.108 903.492 561.908 901.482 561.91V561.91ZM271.582 149C270.367 149.001 269.203 149.484 268.343 150.343C267.484 151.203 267.001 152.367 267 153.582V554.328C267.001 555.543 267.484 556.707 268.343 557.566C269.203 558.425 270.367 558.909 271.582 558.91H901.482C902.697 558.909 903.862 558.425 904.721 557.566C905.58 556.707 906.063 555.543 906.064 554.328V153.582C906.063 152.367 905.58 151.203 904.721 150.343C903.862 149.484 902.697 149.001 901.482 149H271.582Z" fill="#E6E6E6"/>
<path id="Path 2218" d="M738.325 205.081H404.583C402.944 205.083 401.373 205.735 400.214 206.894C399.055 208.053 398.403 209.624 398.401 211.263V496.646C398.403 498.285 399.055 499.856 400.214 501.015C401.373 502.174 402.944 502.826 404.583 502.828H738.325C739.964 502.826 741.535 502.174 742.694 501.015C743.853 499.856 744.505 498.285 744.507 496.646V211.263C744.505 209.624 743.853 208.053 742.694 206.894C741.535 205.735 739.964 205.083 738.325 205.081V205.081ZM742.025 496.647C742.025 497.63 741.635 498.572 740.942 499.268C740.248 499.965 739.308 500.358 738.325 500.363H404.583C403.6 500.36 402.658 499.967 401.964 499.27C401.271 498.574 400.882 497.63 400.883 496.647V211.263C400.882 210.28 401.271 209.336 401.964 208.64C402.658 207.943 403.6 207.55 404.583 207.547H738.325C739.308 207.552 740.248 207.945 740.942 208.642C741.635 209.338 742.025 210.28 742.025 211.263V496.647Z" fill="#3F3D56"/>
<path id="Ellipse 435" d="M290.913 172.55C293.792 172.55 296.126 170.216 296.126 167.337C296.126 164.458 293.792 162.124 290.913 162.124C288.034 162.124 285.7 164.458 285.7 167.337C285.7 170.216 288.034 172.55 290.913 172.55Z" fill="#6C63FF"/>
<path id="Ellipse 436" d="M309.158 172.55C312.037 172.55 314.371 170.216 314.371 167.337C314.371 164.458 312.037 162.124 309.158 162.124C306.279 162.124 303.945 164.458 303.945 167.337C303.945 170.216 306.279 172.55 309.158 172.55Z" fill="#6C63FF"/>
<path id="Ellipse 437" d="M327.403 172.55C330.282 172.55 332.616 170.216 332.616 167.337C332.616 164.458 330.282 162.124 327.403 162.124C324.524 162.124 322.19 164.458 322.19 167.337C322.19 170.216 324.524 172.55 327.403 172.55Z" fill="#6C63FF"/>
</g>
<g id="girl">
<path id="Vector" d="M1031.85 459.789L1055.22 512.422L1049.6 577.515C1047.83 579.011 1046.58 581.025 1046.03 583.271C1045.47 585.517 1045.63 587.882 1046.5 590.029C1047.36 592.177 1048.87 593.998 1050.83 595.235C1052.79 596.472 1055.08 597.062 1057.39 596.922C1059.7 596.781 1061.91 595.916 1063.7 594.451C1065.49 592.986 1066.77 590.994 1067.37 588.758C1067.97 586.521 1067.84 584.154 1067.02 581.992C1066.19 579.83 1064.71 577.983 1062.77 576.712L1063.69 576.551L1072.84 511.504L1057.74 445.891L1031.85 459.789Z" fill="#FFB8B8"/>
<path id="Ellipse 438" d="M1023.88 394.381C1036.7 394.381 1047.1 383.985 1047.1 371.16C1047.1 358.335 1036.7 347.939 1023.88 347.939C1011.05 347.939 1000.66 358.335 1000.66 371.16C1000.66 383.985 1011.05 394.381 1023.88 394.381Z" fill="#FFB8B8"/>
<path id="Path 2228" d="M977.947 494.997L1038.93 506.343C1059.5 468.675 1070.83 434.662 1051.7 412.735L1015.53 410.607C992.423 435.319 972.878 459.301 986.158 476.561L977.947 494.997Z" fill="#6C63FF"/>
<path id="Path 2229" d="M1032.26 465.42C1046.21 470.76 1059.17 466.12 1071.06 450.899L1053.43 416.899L1030.98 421.349L1032.26 465.42Z" fill="#6C63FF"/>
<path id="Path 2230" d="M972.27 777.24L996.381 776L1011.98 612.717L1091.41 775.117L1116.23 774.408L1068.72 631.863C1066.84 584.307 1064.88 536.875 1044.61 516.271L1037.52 501.379L980.784 489.323L972.984 504.215C954.897 546.448 965.516 667.118 972.27 777.24Z" fill="#2F2E41"/>
<path id="Vector_2" d="M1001.35 450.322L981.49 504.222L945.485 555.459C943.176 555.609 940.972 556.483 939.188 557.956C937.403 559.428 936.127 561.426 935.54 563.664C934.954 565.903 935.088 568.269 935.922 570.428C936.756 572.587 938.249 574.428 940.188 575.69C942.127 576.953 944.415 577.573 946.726 577.463C949.038 577.352 951.256 576.517 953.066 575.075C954.876 573.633 956.187 571.658 956.811 569.43C957.436 567.202 957.343 564.834 956.547 562.661L957.378 563.077L1003.47 516.277L1030.42 454.577L1001.35 450.322Z" fill="#FFB8B8"/>
<path id="Path 2233" d="M996.385 450.321C1006.32 461.485 1019.95 463.321 1037.52 455.285V416.991L1015.53 410.609L996.385 450.321Z" fill="#6C63FF"/>
<path id="Vector_3" d="M1096.7 435.822C1093.17 431.405 1088.24 428.369 1083.47 425.347C1078.69 422.325 1073.84 419.114 1070.59 414.484C1065.41 407.096 1065.16 397.379 1065.93 388.389C1066.71 379.399 1068.29 370.216 1066.1 361.462C1063.2 349.882 1053.6 340.506 1042.27 336.767C1030.93 333.028 1018.18 334.624 1007.52 339.988L1010.45 337.221C1008.11 337.702 1005.98 338.888 1004.34 340.618C1002.7 342.348 1001.63 344.54 1001.27 346.897C1000.91 349.255 1001.29 351.665 1002.34 353.804C1003.4 355.942 1005.08 357.706 1007.17 358.858C1011.98 361.511 1018.53 360.751 1022.4 364.651C1026.21 368.496 1025.41 374.807 1024.03 380.039C1020.48 393.583 1014.84 406.621 1012.89 420.483C1010.94 434.345 1013.4 449.877 1023.69 459.377C1031.25 466.36 1041.99 469.054 1052.28 468.848C1062.57 468.642 1072.61 465.827 1082.51 463.027C1089.45 461.065 1097.29 458.343 1100.01 451.655C1102.14 446.422 1100.23 440.239 1096.7 435.822Z" fill="#2F2E41"/>
<path id="Vector_4" d="M996.99 795.93L945.22 795.928V795.273C945.221 789.929 947.344 784.804 951.123 781.025C954.901 777.246 960.026 775.123 965.37 775.123H965.372L996.99 775.124L996.99 795.93Z" fill="#2F2E41"/>
<path id="Vector_5" d="M1116.99 793.93L1065.22 793.928V793.273C1065.22 787.929 1067.34 782.804 1071.12 779.025C1074.9 775.246 1080.03 773.123 1085.37 773.123H1085.37L1116.99 773.124L1116.99 793.93Z" fill="#2F2E41"/>
</g>
</g>
</svg>
